<svg width="1600" height="900" viewBox="0 0 1600 900" fill="none" xmlns="http://www.w3.org/2000/svg">
  <rect width="1600" height="900" fill="#F8FAFC"/>
  <rect x="56" y="56" width="1488" height="788" rx="30" fill="white" stroke="#D8DEE8"/>
  <text x="112" y="136" fill="#0F172A" font-family="Arial" font-size="38" font-weight="700">AI Workspace</text>
  <text x="112" y="178" fill="#64748B" font-family="Arial" font-size="21">AI support appears directly inside the job-search workflow.</text>
  <rect x="112" y="238" width="612" height="540" rx="24" fill="#FFFFFF" stroke="#D8DEE8"/>
  <text x="156" y="296" fill="#0F172A" font-family="Arial" font-size="26" font-weight="700">Job summary</text>
  <rect x="156" y="348" width="496" height="18" rx="9" fill="#CBD5E1"/>
  <rect x="156" y="390" width="452" height="18" rx="9" fill="#CBD5E1"/>
  <rect x="156" y="432" width="512" height="18" rx="9" fill="#CBD5E1"/>
  <rect x="156" y="506" width="200" height="44" rx="22" fill="#E7F1F7"/>
  <text x="184" y="535" fill="#3E6D8A" font-family="Arial" font-size="18" font-weight="700">Tailor resume</text>
  <rect x="376" y="506" width="220" height="44" rx="22" fill="#F6EFEA"/>
  <text x="404" y="535" fill="#A27E69" font-family="Arial" font-size="18" font-weight="700">Draft outreach</text>
  <rect x="772" y="238" width="716" height="540" rx="24" fill="#0F172A"/>
  <text x="820" y="298" fill="white" font-family="Arial" font-size="26" font-weight="700">ApplyGrid Assistant</text>
  <rect x="820" y="350" width="536" height="74" rx="20" fill="#1E293B"/>
  <text x="852" y="395" fill="#E2E8F0" font-family="Arial" font-size="18">Highlight experience that maps to this role.</text>
  <rect x="900" y="462" width="520" height="128" rx="22" fill="#EEF5F9"/>
  <text x="932" y="508" fill="#0F172A" font-family="Arial" font-size="19" font-weight="700">Recommended positioning</text>
  <text x="932" y="546" fill="#475569" font-family="Arial" font-size="17">Emphasize product discovery, Figma prototypes,</text>
  <text x="932" y="578" fill="#475569" font-family="Arial" font-size="17">and AI-assisted iteration from ApplyGrid.</text>
  <rect x="820" y="650" width="520" height="54" rx="27" fill="#FFFFFF"/>
  <text x="852" y="684" fill="#64748B" font-family="Arial" font-size="18">Ask AI to prepare interview notes...</text>
</svg>
