<svg width="1600" height="900" viewBox="0 0 1600 900" fill="none" xmlns="http://www.w3.org/2000/svg">
  <rect width="1600" height="900" fill="#F8FAFC"/>
  <rect x="56" y="56" width="1488" height="788" rx="30" fill="white" stroke="#D8DEE8"/>
  <text x="112" y="136" fill="#0F172A" font-family="Arial" font-size="38" font-weight="700">Opportunity Discovery</text>
  <text x="112" y="178" fill="#64748B" font-family="Arial" font-size="21">Relevant opportunities surfaced from the user's background and goals.</text>
  <rect x="112" y="232" width="332" height="536" rx="24" fill="#F1F5F9"/>
  <text x="148" y="292" fill="#0F172A" font-family="Arial" font-size="24" font-weight="700">Filters</text>
  <rect x="148" y="340" width="188" height="42" rx="21" fill="#7091A8"/>
  <text x="178" y="367" fill="white" font-family="Arial" font-size="18" font-weight="700">Product roles</text>
  <rect x="148" y="410" width="244" height="42" rx="21" fill="white" stroke="#D8DEE8"/>
  <text x="178" y="437" fill="#475569" font-family="Arial" font-size="18">AI-assisted products</text>
  <rect x="148" y="480" width="172" height="42" rx="21" fill="white" stroke="#D8DEE8"/>
  <text x="178" y="507" fill="#475569" font-family="Arial" font-size="18">Remote</text>
  <rect x="492" y="232" width="996" height="536" rx="24" fill="#FFFFFF" stroke="#D8DEE8"/>
  <g>
    <rect x="536" y="276" width="908" height="116" rx="20" fill="#F8FAFC" stroke="#E2E8F0"/>
    <text x="572" y="324" fill="#0F172A" font-family="Arial" font-size="25" font-weight="700">Senior Product Manager, AI Workflows</text>
    <text x="572" y="358" fill="#64748B" font-family="Arial" font-size="18">92% match - strong product discovery and AI prototyping fit</text>
    <rect x="1264" y="312" width="132" height="42" rx="21" fill="#E7F1F7"/>
    <text x="1296" y="339" fill="#3E6D8A" font-family="Arial" font-size="18" font-weight="700">Review</text>
  </g>
  <g>
    <rect x="536" y="424" width="908" height="116" rx="20" fill="#F8FAFC" stroke="#E2E8F0"/>
    <text x="572" y="472" fill="#0F172A" font-family="Arial" font-size="25" font-weight="700">Product Lead, Compliance Platform</text>
    <text x="572" y="506" fill="#64748B" font-family="Arial" font-size="18">87% match - enterprise workflows and stakeholder alignment</text>
    <rect x="1264" y="460" width="132" height="42" rx="21" fill="#E7F1F7"/>
    <text x="1296" y="487" fill="#3E6D8A" font-family="Arial" font-size="18" font-weight="700">Review</text>
  </g>
  <g>
    <rect x="536" y="572" width="908" height="116" rx="20" fill="#F8FAFC" stroke="#E2E8F0"/>
    <text x="572" y="620" fill="#0F172A" font-family="Arial" font-size="25" font-weight="700">Growth Product Manager</text>
    <text x="572" y="654" fill="#64748B" font-family="Arial" font-size="18">81% match - partnership funnels and CRM integration experience</text>
    <rect x="1264" y="608" width="132" height="42" rx="21" fill="#E7F1F7"/>
    <text x="1296" y="635" fill="#3E6D8A" font-family="Arial" font-size="18" font-weight="700">Review</text>
  </g>
</svg>
