<svg width="1600" height="900" viewBox="0 0 1600 900" fill="none" xmlns="http://www.w3.org/2000/svg">
  <rect width="1600" height="900" fill="#F8FAFC"/>
  <rect x="56" y="56" width="1488" height="788" rx="30" fill="white" stroke="#D8DEE8"/>
  <text x="112" y="136" fill="#0F172A" font-family="Arial" font-size="38" font-weight="700">Application Pipeline</text>
  <text x="112" y="178" fill="#64748B" font-family="Arial" font-size="21">Applications, conversations, interviews, and follow-ups in one workspace.</text>
  <g font-family="Arial">
    <rect x="112" y="238" width="320" height="540" rx="24" fill="#EEF5F9"/>
    <text x="144" y="292" fill="#3E6D8A" font-size="22" font-weight="700">Interested</text>
    <rect x="144" y="330" width="256" height="118" rx="18" fill="white" stroke="#D8DEE8"/>
    <text x="168" y="374" fill="#0F172A" font-size="19" font-weight="700">AI Workflow PM</text>
    <text x="168" y="408" fill="#64748B" font-size="16">Resume draft ready</text>
    <rect x="144" y="474" width="256" height="118" rx="18" fill="white" stroke="#D8DEE8"/>
    <text x="168" y="518" fill="#0F172A" font-size="19" font-weight="700">Platform PM</text>
    <text x="168" y="552" fill="#64748B" font-size="16">Research company</text>
    <rect x="464" y="238" width="320" height="540" rx="24" fill="#F6EFEA"/>
    <text x="496" y="292" fill="#A27E69" font-size="22" font-weight="700">Applied</text>
    <rect x="496" y="330" width="256" height="118" rx="18" fill="white" stroke="#D8DEE8"/>
    <text x="520" y="374" fill="#0F172A" font-size="19" font-weight="700">Growth PM</text>
    <text x="520" y="408" fill="#64748B" font-size="16">Follow up Friday</text>
    <rect x="816" y="238" width="320" height="540" rx="24" fill="#F8F1E8"/>
    <text x="848" y="292" fill="#C19066" font-size="22" font-weight="700">Interviewing</text>
    <rect x="848" y="330" width="256" height="142" rx="18" fill="white" stroke="#D8DEE8"/>
    <text x="872" y="374" fill="#0F172A" font-size="19" font-weight="700">Product Lead</text>
    <text x="872" y="408" fill="#64748B" font-size="16">Prep notes generated</text>
    <rect x="872" y="428" width="132" height="32" rx="16" fill="#E7F1F7"/>
    <text x="899" y="450" fill="#3E6D8A" font-size="15" font-weight="700">AI prep</text>
    <rect x="1168" y="238" width="320" height="540" rx="24" fill="#F1F5F9"/>
    <text x="1200" y="292" fill="#475569" font-size="22" font-weight="700">Next Steps</text>
    <rect x="1200" y="330" width="256" height="118" rx="18" fill="white" stroke="#D8DEE8"/>
    <text x="1224" y="374" fill="#0F172A" font-size="19" font-weight="700">Recruiter sync</text>
    <text x="1224" y="408" fill="#64748B" font-size="16">Tomorrow, 10:30 AM</text>
  </g>
</svg>
