<svg width="1600" height="900" viewBox="0 0 1600 900" fill="none" xmlns="http://www.w3.org/2000/svg">
  <rect width="1600" height="900" fill="#F8FAFC"/>
  <rect x="48" y="48" width="1504" height="804" rx="32" fill="white" stroke="#D8DEE8"/>
  <rect x="88" y="88" width="232" height="724" rx="24" fill="#0F172A"/>
  <circle cx="136" cy="136" r="22" fill="#7091A8"/>
  <text x="172" y="144" fill="white" font-family="Arial" font-size="26" font-weight="700">ApplyGrid</text>
  <rect x="116" y="216" width="176" height="44" rx="12" fill="#1E293B"/>
  <rect x="116" y="286" width="140" height="18" rx="9" fill="#64748B"/>
  <rect x="116" y="336" width="156" height="18" rx="9" fill="#64748B"/>
  <rect x="116" y="386" width="118" height="18" rx="9" fill="#64748B"/>
  <rect x="368" y="116" width="1048" height="112" rx="24" fill="#EEF5F9"/>
  <text x="408" y="164" fill="#0F172A" font-family="Arial" font-size="34" font-weight="700">Personalized onboarding</text>
  <text x="408" y="199" fill="#475569" font-family="Arial" font-size="20">Start with a resume, connected email, and job search goals.</text>
  <rect x="368" y="276" width="312" height="460" rx="26" fill="#FFFFFF" stroke="#D8DEE8"/>
  <text x="408" y="334" fill="#0F172A" font-family="Arial" font-size="25" font-weight="700">Resume upload</text>
  <rect x="408" y="376" width="232" height="168" rx="22" fill="#F1F5F9" stroke="#CBD5E1" stroke-dasharray="12 12"/>
  <text x="454" y="468" fill="#7091A8" font-family="Arial" font-size="22" font-weight="700">Taylor_Howson.pdf</text>
  <rect x="408" y="596" width="232" height="52" rx="16" fill="#7091A8"/>
  <text x="461" y="630" fill="white" font-family="Arial" font-size="20" font-weight="700">Analyze resume</text>
  <rect x="724" y="276" width="312" height="460" rx="26" fill="#FFFFFF" stroke="#D8DEE8"/>
  <text x="764" y="334" fill="#0F172A" font-family="Arial" font-size="25" font-weight="700">Search goals</text>
  <rect x="764" y="378" width="232" height="48" rx="14" fill="#F8FAFC" stroke="#D8DEE8"/>
  <text x="788" y="409" fill="#475569" font-family="Arial" font-size="18">Product Manager</text>
  <rect x="764" y="452" width="232" height="48" rx="14" fill="#F8FAFC" stroke="#D8DEE8"/>
  <text x="788" y="483" fill="#475569" font-family="Arial" font-size="18">Remote / Hybrid</text>
  <rect x="764" y="526" width="128" height="38" rx="19" fill="#E7F1F7"/>
  <text x="789" y="551" fill="#3E6D8A" font-family="Arial" font-size="17" font-weight="700">AI Tools</text>
  <rect x="900" y="526" width="96" height="38" rx="19" fill="#F5ECE6"/>
  <text x="926" y="551" fill="#A27E69" font-family="Arial" font-size="17" font-weight="700">SaaS</text>
  <rect x="1080" y="276" width="312" height="460" rx="26" fill="#FFFFFF" stroke="#D8DEE8"/>
  <text x="1120" y="334" fill="#0F172A" font-family="Arial" font-size="25" font-weight="700">Profile summary</text>
  <rect x="1120" y="382" width="232" height="16" rx="8" fill="#CBD5E1"/>
  <rect x="1120" y="420" width="204" height="16" rx="8" fill="#CBD5E1"/>
  <rect x="1120" y="458" width="220" height="16" rx="8" fill="#CBD5E1"/>
  <rect x="1120" y="532" width="88" height="88" rx="20" fill="#EEF5F9"/>
  <rect x="1228" y="532" width="88" height="88" rx="20" fill="#F6EFEA"/>
  <text x="1137" y="672" fill="#475569" font-family="Arial" font-size="18">Ready to personalize recommendations.</text>
</svg>
