<svg width="1600" height="900" viewBox="0 0 1600 900" fill="none" xmlns="http://www.w3.org/2000/svg">
  <rect width="1600" height="900" fill="#F8FAFC"/>
  <rect x="56" y="56" width="1488" height="788" rx="30" fill="white" stroke="#D8DEE8"/>
  <text x="112" y="136" fill="#0F172A" font-family="Arial" font-size="38" font-weight="700">CRM Integration</text>
  <text x="112" y="178" fill="#64748B" font-family="Arial" font-size="21">Internal teams can initiate referrals and monitor progress without leaving the CRM.</text>
  <rect x="112" y="242" width="1376" height="90" rx="22" fill="#EEF5F9"/>
  <text x="154" y="298" fill="#0F172A" font-family="Arial" font-size="28" font-weight="700">Customer: Sarah Mitchell</text>
  <rect x="1210" y="263" width="218" height="50" rx="25" fill="#C19066"/>
  <text x="1250" y="295" fill="white" font-family="Arial" font-size="18" font-weight="700">Send to Uqual</text>
  <rect x="112" y="382" width="640" height="324" rx="26" fill="#FFFFFF" stroke="#D8DEE8"/>
  <text x="154" y="442" fill="#0F172A" font-family="Arial" font-size="26" font-weight="700">Referral status</text>
  <rect x="154" y="500" width="232" height="44" rx="22" fill="#FFF3C4"/>
  <text x="184" y="528" fill="#9A6416" font-family="Arial" font-size="18" font-weight="700">Financial coaching</text>
  <rect x="154" y="574" width="462" height="16" rx="8" fill="#CBD5E1"/>
  <rect x="154" y="618" width="386" height="16" rx="8" fill="#CBD5E1"/>
  <rect x="804" y="382" width="684" height="324" rx="26" fill="#FFFFFF" stroke="#D8DEE8"/>
  <text x="846" y="442" fill="#0F172A" font-family="Arial" font-size="26" font-weight="700">Partner updates</text>
  <rect x="846" y="500" width="554" height="62" rx="18" fill="#F8FAFC"/>
  <text x="876" y="538" fill="#475569" font-family="Arial" font-size="18">Budget plan completed - customer improving readiness</text>
  <rect x="846" y="592" width="462" height="62" rx="18" fill="#F8FAFC"/>
  <text x="876" y="630" fill="#475569" font-family="Arial" font-size="18">Ready for follow-up when qualification changes</text>
</svg>
