<svg width="1600" height="900" viewBox="0 0 1600 900" fill="none" xmlns="http://www.w3.org/2000/svg">
  <rect width="1600" height="900" fill="#F8FAFC"/>
  <rect x="58" y="58" width="1484" height="784" rx="30" fill="white" stroke="#D8DEE8"/>
  <text x="112" y="138" fill="#0F172A" font-family="Arial" font-size="38" font-weight="700">Application + Referral Experience</text>
  <text x="112" y="180" fill="#64748B" font-family="Arial" font-size="21">Eligible customers are offered a path to Uqual inside the application flow.</text>
  <rect x="142" y="248" width="584" height="484" rx="28" fill="#FFFFFF" stroke="#D8DEE8"/>
  <text x="190" y="310" fill="#0F172A" font-family="Arial" font-size="28" font-weight="700">Application checkpoint</text>
  <rect x="190" y="362" width="456" height="18" rx="9" fill="#CBD5E1"/>
  <rect x="190" y="406" width="392" height="18" rx="9" fill="#CBD5E1"/>
  <rect x="190" y="476" width="456" height="124" rx="22" fill="#F8F1E8"/>
  <text x="228" y="526" fill="#0F172A" font-family="Arial" font-size="23" font-weight="700">Improve financial readiness</text>
  <text x="228" y="562" fill="#64748B" font-family="Arial" font-size="18">Connect with Uqual for financial wellness support.</text>
  <rect x="228" y="628" width="180" height="50" rx="25" fill="#C19066"/>
  <text x="269" y="660" fill="white" font-family="Arial" font-size="18" font-weight="700">Refer to Uqual</text>
  <path d="M760 490H900" stroke="#C19066" stroke-width="10" stroke-linecap="round"/>
  <path d="M900 490L870 462M900 490L870 518" stroke="#C19066" stroke-width="10" stroke-linecap="round"/>
  <rect x="936" y="248" width="522" height="484" rx="28" fill="#0F172A"/>
  <text x="984" y="310" fill="white" font-family="Arial" font-size="28" font-weight="700">Uqual referral</text>
  <rect x="984" y="366" width="318" height="46" rx="23" fill="#1E293B"/>
  <text x="1012" y="396" fill="#E2E8F0" font-family="Arial" font-size="18">Customer profile sent securely</text>
  <rect x="984" y="442" width="266" height="46" rx="23" fill="#1E293B"/>
  <text x="1012" y="472" fill="#E2E8F0" font-family="Arial" font-size="18">Consent captured</text>
  <rect x="984" y="518" width="362" height="46" rx="23" fill="#1E293B"/>
  <text x="1012" y="548" fill="#E2E8F0" font-family="Arial" font-size="18">Partner journey created</text>
  <rect x="984" y="612" width="222" height="50" rx="25" fill="#7091A8"/>
  <text x="1030" y="644" fill="white" font-family="Arial" font-size="18" font-weight="700">Referral active</text>
</svg>
